<mxfile host="app.diagrams.net" modified="2024-05-25T15:43:00.268Z" agent="Mozilla/5.0 (Windows NT 10.0; Win64; x64) AppleWebKit/537.36 (KHTML, like Gecko) Chrome/125.0.0.0 Safari/537.36" etag="tK3shKmHE3mamC1Tn8ck" version="24.4.8" type="device">
  <diagram name="Pagina-1" id="_a7IEgZh82cBBZk2k4EW">
    <mxGraphModel dx="844" dy="454" grid="1" gridSize="10" guides="1" tooltips="1" connect="1" arrows="1" fold="1" page="1" pageScale="1" pageWidth="827" pageHeight="1169" math="0" shadow="0">
      <root>
        <mxCell id="0" />
        <mxCell id="1" parent="0" />
        <mxCell id="8n-3k9I_TX9Jh4Y8eACe-20" value="" style="edgeStyle=orthogonalEdgeStyle;rounded=0;orthogonalLoop=1;jettySize=auto;html=1;" edge="1" parent="1" source="8n-3k9I_TX9Jh4Y8eACe-1" target="8n-3k9I_TX9Jh4Y8eACe-13">
          <mxGeometry relative="1" as="geometry" />
        </mxCell>
        <mxCell id="8n-3k9I_TX9Jh4Y8eACe-1" value="tecniche e metodologie che Ã¨ bene usare nel futuro" style="rounded=0;whiteSpace=wrap;html=1;fillColor=#d5e8d4;strokeColor=#82b366;" vertex="1" parent="1">
          <mxGeometry x="320" y="40" width="160" height="80" as="geometry" />
        </mxCell>
        <mxCell id="8n-3k9I_TX9Jh4Y8eACe-2" value="lavoro posto come gioco co-operativo" style="rounded=0;whiteSpace=wrap;html=1;" vertex="1" parent="1">
          <mxGeometry x="120" y="170" width="160" height="70" as="geometry" />
        </mxCell>
        <mxCell id="8n-3k9I_TX9Jh4Y8eACe-3" value="gamification" style="rounded=0;whiteSpace=wrap;html=1;" vertex="1" parent="1">
          <mxGeometry x="120" y="280" width="160" height="70" as="geometry" />
        </mxCell>
        <mxCell id="8n-3k9I_TX9Jh4Y8eACe-16" value="" style="edgeStyle=orthogonalEdgeStyle;rounded=0;orthogonalLoop=1;jettySize=auto;html=1;" edge="1" parent="1" source="8n-3k9I_TX9Jh4Y8eACe-4" target="8n-3k9I_TX9Jh4Y8eACe-13">
          <mxGeometry relative="1" as="geometry" />
        </mxCell>
        <mxCell id="8n-3k9I_TX9Jh4Y8eACe-4" value="porre gli aspetti sociali e umani al centro" style="rounded=0;whiteSpace=wrap;html=1;" vertex="1" parent="1">
          <mxGeometry x="320" y="280" width="160" height="70" as="geometry" />
        </mxCell>
        <mxCell id="8n-3k9I_TX9Jh4Y8eACe-5" value="porre attenzione sul benessere psicologico degli ingegneri" style="rounded=0;whiteSpace=wrap;html=1;" vertex="1" parent="1">
          <mxGeometry x="520" y="280" width="160" height="70" as="geometry" />
        </mxCell>
        <mxCell id="8n-3k9I_TX9Jh4Y8eACe-18" value="" style="edgeStyle=orthogonalEdgeStyle;rounded=0;orthogonalLoop=1;jettySize=auto;html=1;exitX=0.003;exitY=0.425;exitDx=0;exitDy=0;exitPerimeter=0;" edge="1" parent="1" source="8n-3k9I_TX9Jh4Y8eACe-7" target="8n-3k9I_TX9Jh4Y8eACe-13">
          <mxGeometry relative="1" as="geometry" />
        </mxCell>
        <mxCell id="8n-3k9I_TX9Jh4Y8eACe-7" value="Utilizzare pratiche di mentoring,coaching e creazione di eventi sociali" style="rounded=0;whiteSpace=wrap;html=1;" vertex="1" parent="1">
          <mxGeometry x="520" y="170" width="160" height="70" as="geometry" />
        </mxCell>
        <mxCell id="8n-3k9I_TX9Jh4Y8eACe-13" value="pratiche e metodi" style="rounded=1;whiteSpace=wrap;html=1;fillColor=#f8cecc;strokeColor=#b85450;" vertex="1" parent="1">
          <mxGeometry x="340" y="160" width="120" height="80" as="geometry" />
        </mxCell>
        <mxCell id="8n-3k9I_TX9Jh4Y8eACe-14" value="" style="endArrow=classic;html=1;rounded=0;exitX=1.005;exitY=0.421;exitDx=0;exitDy=0;exitPerimeter=0;" edge="1" parent="1" source="8n-3k9I_TX9Jh4Y8eACe-2">
          <mxGeometry width="50" height="50" relative="1" as="geometry">
            <mxPoint x="270" y="250" as="sourcePoint" />
            <mxPoint x="340" y="200" as="targetPoint" />
          </mxGeometry>
        </mxCell>
        <mxCell id="8n-3k9I_TX9Jh4Y8eACe-15" value="" style="endArrow=classic;html=1;rounded=0;exitX=1;exitY=0;exitDx=0;exitDy=0;entryX=0;entryY=0.934;entryDx=0;entryDy=0;entryPerimeter=0;" edge="1" parent="1" source="8n-3k9I_TX9Jh4Y8eACe-3" target="8n-3k9I_TX9Jh4Y8eACe-13">
          <mxGeometry width="50" height="50" relative="1" as="geometry">
            <mxPoint x="290" y="280" as="sourcePoint" />
            <mxPoint x="340" y="230" as="targetPoint" />
          </mxGeometry>
        </mxCell>
        <mxCell id="8n-3k9I_TX9Jh4Y8eACe-17" value="" style="endArrow=classic;html=1;rounded=0;exitX=0;exitY=0;exitDx=0;exitDy=0;entryX=0.978;entryY=0.949;entryDx=0;entryDy=0;entryPerimeter=0;" edge="1" parent="1" source="8n-3k9I_TX9Jh4Y8eACe-5" target="8n-3k9I_TX9Jh4Y8eACe-13">
          <mxGeometry width="50" height="50" relative="1" as="geometry">
            <mxPoint x="470" y="310" as="sourcePoint" />
            <mxPoint x="460" y="240" as="targetPoint" />
          </mxGeometry>
        </mxCell>
      </root>
    </mxGraphModel>
  </diagram>
</mxfile>
